<svg xmlns="http://www.w3.org/2000/svg"  viewBox="0 0 50 50" fill="currentColor" id="img"><path d="M 25 8 C 15.611 8 8 15.611 8 25 C 8 34.389 15.611 42 25 42 C 34.389 42 42 34.389 42 25 C 42 15.611 34.389 8 25 8 z M 25 9 C 28.95129 9 32.562253 10.439045 35.353516 12.8125 C 34.085405 13.14358 33.230469 14.353087 33.230469 15.660156 C 33.230469 17.033156 34.024187 18.194359 34.867188 19.568359 C 35.503188 20.677359 36.242188 22.102156 36.242188 24.160156 C 36.242187 25.589156 35.819609 27.379969 34.974609 29.542969 L 33.3125 35.099609 L 27.292969 17.195312 C 28.294969 17.141313 29.199219 17.035156 29.199219 17.035156 C 30.095219 16.928156 29.991797 15.612109 29.091797 15.662109 C 29.091797 15.662109 26.395297 15.873047 24.654297 15.873047 C 23.020297 15.873047 20.269531 15.662109 20.269531 15.662109 C 19.373531 15.609109 19.264063 16.982156 20.164062 17.035156 C 20.164062 17.035156 21.012109 17.141406 21.912109 17.191406 L 24.503906 24.302734 L 20.859375 35.234375 L 14.796875 17.193359 C 15.799875 17.139359 16.701172 17.035156 16.701172 17.035156 C 17.597172 16.928156 17.495703 15.610156 16.595703 15.660156 C 16.595703 15.660156 13.89725 15.873047 12.15625 15.873047 C 12.072331 15.873047 11.969859 15.871115 11.871094 15.869141 C 14.761864 11.720716 19.560002 9 25 9 z M 39.726562 18.738281 C 40.545256 20.661561 41 22.777694 41 25 C 41 30.619796 38.096855 35.554095 33.714844 38.408203 L 38.458984 24.689453 C 39.406509 22.317649 39.724913 20.421994 39.726562 18.738281 z M 10.123047 19.140625 L 17.402344 39.082031 C 12.399214 36.377349 9 31.08694 9 25 C 9 22.929313 9.4070837 20.956868 10.123047 19.140625 z M 25.294922 26.453125 L 30.275391 40.091797 C 28.62151 40.670054 26.851279 41 25 41 C 23.44024 41 21.936995 40.767684 20.511719 40.351562 L 25.294922 26.453125 z"/></svg>