<svg viewBox="0 0 788 87" xmlns="http://www.w3.org/2000/svg" fill="currentColor" id="img">
<path xmlns="http://www.w3.org/2000/svg" d="M15.41 77V9.8H38.546C42.162 9.8 45.426 10.696 48.338 12.488C51.282 14.28 53.618 16.696 55.346 19.736C57.106 22.776 57.986 26.136 57.986 29.816C57.986 33.56 57.09 36.952 55.298 39.992C53.538 43 51.186 45.4 48.242 47.192C45.298 48.984 42.066 49.88 38.546 49.88H25.394V77H15.41ZM25.394 39.896H37.538C39.458 39.896 41.202 39.416 42.77 38.456C44.37 37.496 45.634 36.216 46.562 34.616C47.522 33.016 48.002 31.208 48.002 29.192C48.002 27.176 47.522 25.368 46.562 23.768C45.634 22.136 44.37 20.856 42.77 19.928C41.202 18.968 39.458 18.488 37.538 18.488H25.394V39.896ZM96.2532 9.8H107.917L132.349 77H121.789L117.133 64.232H87.0372L82.4292 77H71.8212L96.2532 9.8ZM90.7332 54.248H113.437L102.061 23.048L90.7332 54.248ZM157.573 77V9.8H168.373L199.237 58.952V9.8H209.221V77H198.421L167.557 27.848V77H157.573ZM268.664 78.248C264.12 78.248 259.848 77.352 255.848 75.56C251.848 73.736 248.328 71.24 245.288 68.072C242.28 64.872 239.912 61.16 238.184 56.936C236.488 52.712 235.64 48.2 235.64 43.4C235.64 38.6 236.488 34.088 238.184 29.864C239.912 25.64 242.28 21.944 245.288 18.776C248.328 15.576 251.848 13.08 255.848 11.288C259.848 9.46399 264.12 8.55199 268.664 8.55199C274.104 8.55199 279.112 9.81599 283.688 12.344C288.264 14.872 292.056 18.232 295.064 22.424L286.184 27.176C284.104 24.552 281.528 22.456 278.456 20.888C275.384 19.32 272.12 18.536 268.664 18.536C265.464 18.536 262.472 19.192 259.688 20.504C256.904 21.816 254.456 23.608 252.344 25.88C250.232 28.152 248.584 30.792 247.4 33.8C246.216 36.808 245.624 40.008 245.624 43.4C245.624 46.824 246.216 50.04 247.4 53.048C248.584 56.024 250.232 58.664 252.344 60.968C254.488 63.24 256.952 65.032 259.736 66.344C262.52 67.624 265.496 68.264 268.664 68.264C272.184 68.264 275.464 67.48 278.504 65.912C281.576 64.312 284.136 62.2 286.184 59.576L295.064 64.424C292.056 68.616 288.264 71.976 283.688 74.504C279.112 77 274.104 78.248 268.664 78.248ZM361.572 9.8H371.556V77H361.572V45.992H331.188V77H321.204V9.8H331.188V36.008H361.572V9.8ZM431.079 78.248C426.535 78.248 422.263 77.352 418.263 75.56C414.263 73.736 410.743 71.224 407.703 68.024C404.663 64.824 402.279 61.128 400.551 56.936C398.823 52.712 397.959 48.2 397.959 43.4C397.959 38.6 398.823 34.104 400.551 29.912C402.279 25.688 404.663 21.976 407.703 18.776C410.743 15.576 414.263 13.08 418.263 11.288C422.263 9.46399 426.535 8.55199 431.079 8.55199C435.655 8.55199 439.943 9.46399 443.943 11.288C447.943 13.08 451.463 15.576 454.503 18.776C457.543 21.976 459.911 25.688 461.607 29.912C463.335 34.104 464.199 38.6 464.199 43.4C464.199 48.2 463.335 52.712 461.607 56.936C459.911 61.128 457.543 64.824 454.503 68.024C451.463 71.224 447.943 73.736 443.943 75.56C439.943 77.352 435.655 78.248 431.079 78.248ZM431.079 68.264C434.279 68.264 437.271 67.608 440.055 66.296C442.839 64.984 445.287 63.192 447.399 60.92C449.543 58.616 451.207 55.976 452.391 53C453.607 49.992 454.215 46.792 454.215 43.4C454.215 40.008 453.607 36.808 452.391 33.8C451.207 30.792 449.543 28.152 447.399 25.88C445.287 23.576 442.839 21.784 440.055 20.504C437.271 19.192 434.279 18.536 431.079 18.536C427.879 18.536 424.887 19.192 422.103 20.504C419.319 21.816 416.855 23.624 414.711 25.928C412.599 28.2 410.935 30.84 409.719 33.848C408.535 36.824 407.943 40.008 407.943 43.4C407.943 46.824 408.535 50.04 409.719 53.048C410.935 56.024 412.599 58.664 414.711 60.968C416.855 63.24 419.319 65.032 422.103 66.344C424.887 67.624 427.879 68.264 431.079 68.264ZM514.881 78.248C511.201 78.248 507.665 77.672 504.273 76.52C500.881 75.368 497.921 73.72 495.393 71.576C492.865 69.4 491.057 66.824 489.969 63.848L499.329 60.344C499.873 61.88 500.913 63.256 502.449 64.472C504.017 65.656 505.873 66.584 508.017 67.256C510.193 67.928 512.481 68.264 514.881 68.264C517.441 68.264 519.841 67.848 522.081 67.016C524.353 66.184 526.177 65.032 527.553 63.56C528.961 62.088 529.665 60.36 529.665 58.376C529.665 56.328 528.929 54.648 527.457 53.336C526.017 52.024 524.161 50.984 521.889 50.216C519.649 49.448 517.313 48.872 514.881 48.488C510.177 47.72 505.953 46.6 502.209 45.128C498.497 43.656 495.553 41.592 493.377 38.936C491.233 36.28 490.161 32.824 490.161 28.568C490.161 24.568 491.297 21.08 493.569 18.104C495.873 15.128 498.897 12.824 502.641 11.192C506.417 9.528 510.497 8.696 514.881 8.696C518.497 8.696 521.985 9.272 525.345 10.424C528.737 11.544 531.713 13.192 534.273 15.368C536.865 17.512 538.721 20.12 539.841 23.192L530.385 26.6C529.841 25.032 528.801 23.672 527.265 22.52C525.729 21.336 523.873 20.408 521.697 19.736C519.553 19.064 517.281 18.728 514.881 18.728C512.321 18.696 509.921 19.112 507.681 19.976C505.473 20.808 503.665 21.96 502.257 23.432C500.849 24.904 500.145 26.616 500.145 28.568C500.145 30.968 500.801 32.792 502.113 34.04C503.425 35.288 505.185 36.216 507.393 36.824C509.633 37.4 512.129 37.928 514.881 38.408C519.297 39.112 523.377 40.28 527.121 41.912C530.897 43.544 533.921 45.72 536.193 48.44C538.497 51.128 539.649 54.44 539.649 58.376C539.649 62.344 538.497 65.832 536.193 68.84C533.921 71.816 530.897 74.136 527.121 75.8C523.377 77.432 519.297 78.248 514.881 78.248ZM597.523 78.248C592.979 78.248 588.707 77.352 584.707 75.56C580.707 73.736 577.187 71.224 574.147 68.024C571.107 64.824 568.723 61.128 566.995 56.936C565.267 52.712 564.403 48.2 564.403 43.4C564.403 38.6 565.267 34.104 566.995 29.912C568.723 25.688 571.107 21.976 574.147 18.776C577.187 15.576 580.707 13.08 584.707 11.288C588.707 9.46399 592.979 8.55199 597.523 8.55199C602.099 8.55199 606.387 9.46399 610.387 11.288C614.387 13.08 617.907 15.576 620.947 18.776C623.987 21.976 626.355 25.688 628.051 29.912C629.779 34.104 630.643 38.6 630.643 43.4C630.643 48.2 629.779 52.712 628.051 56.936C626.355 61.128 623.987 64.824 620.947 68.024C617.907 71.224 614.387 73.736 610.387 75.56C606.387 77.352 602.099 78.248 597.523 78.248ZM597.523 68.264C600.723 68.264 603.715 67.608 606.499 66.296C609.283 64.984 611.731 63.192 613.843 60.92C615.987 58.616 617.651 55.976 618.835 53C620.051 49.992 620.659 46.792 620.659 43.4C620.659 40.008 620.051 36.808 618.835 33.8C617.651 30.792 615.987 28.152 613.843 25.88C611.731 23.576 609.283 21.784 606.499 20.504C603.715 19.192 600.723 18.536 597.523 18.536C594.323 18.536 591.331 19.192 588.547 20.504C585.763 21.816 583.299 23.624 581.155 25.928C579.043 28.2 577.379 30.84 576.163 33.848C574.979 36.824 574.387 40.008 574.387 43.4C574.387 46.824 574.979 50.04 576.163 53.048C577.379 56.024 579.043 58.664 581.155 60.968C583.299 63.24 585.763 65.032 588.547 66.344C591.331 67.624 594.323 68.264 597.523 68.264ZM656.529 77V9.8H696.129V19.784H666.513V36.008H691.521V45.992H666.513V77H656.529ZM770.473 9.8V19.784H749.065V77H739.081V19.784H717.721V9.8H770.473Z"></path>
<path xmlns="http://www.w3.org/2000/svg" d="M15.41 77H14.41V78H15.41V77ZM15.41 9.8V8.8H14.41V9.8H15.41ZM48.338 12.488L47.8139 13.3397L47.818 13.3422L48.338 12.488ZM55.346 19.736L54.4766 20.2302L54.4806 20.237L55.346 19.736ZM55.298 39.992L54.4365 39.4842L54.4349 39.487L55.298 39.992ZM48.242 47.192L47.722 46.3378L47.722 46.3378L48.242 47.192ZM25.394 49.88V48.88H24.394V49.88H25.394ZM25.394 77V78H26.394V77H25.394ZM25.394 39.896H24.394V40.896H25.394V39.896ZM42.77 38.456L42.2555 37.5985L42.2478 37.6031L42.77 38.456ZM46.562 34.616L45.7045 34.1015L45.7007 34.1079L45.697 34.1143L46.562 34.616ZM46.562 23.768L45.6927 24.2623L45.6985 24.2725L45.7045 24.2825L46.562 23.768ZM42.77 19.928L42.2478 20.7809L42.258 20.7871L42.2683 20.793L42.77 19.928ZM25.394 18.488V17.488H24.394V18.488H25.394ZM16.41 77V9.8H14.41V77H16.41ZM15.41 10.8H38.546V8.8H15.41V10.8ZM38.546 10.8C41.9881 10.8 45.0687 11.6503 47.8139 13.3397L48.8621 11.6363C45.7833 9.74168 42.3359 8.8 38.546 8.8V10.8ZM47.818 13.3422C50.6147 15.0445 52.8313 17.3357 54.4766 20.2302L56.2154 19.2418C54.4047 16.0563 51.9493 13.5155 48.8579 11.6338L47.818 13.3422ZM54.4806 20.237C56.1481 23.1174 56.986 26.3032 56.986 29.816H58.986C58.986 25.9688 58.0638 22.4346 56.2114 19.235L54.4806 20.237ZM56.986 29.816C56.986 33.3927 56.1323 36.6075 54.4365 39.4842L56.1595 40.4998C58.0477 37.2965 58.986 33.7273 58.986 29.816H56.986ZM54.4349 39.487C52.7576 42.3536 50.5228 44.633 47.722 46.3378L48.7619 48.0462C51.8491 46.167 54.3184 43.6464 56.1611 40.497L54.4349 39.487ZM47.722 46.3378C44.9382 48.0323 41.8867 48.88 38.546 48.88V50.88C42.2453 50.88 45.6578 49.9357 48.7619 48.0462L47.722 46.3378ZM38.546 48.88H25.394V50.88H38.546V48.88ZM24.394 49.88V77H26.394V49.88H24.394ZM25.394 76H15.41V78H25.394V76ZM25.394 40.896H37.538V38.896H25.394V40.896ZM37.538 40.896C39.6337 40.896 41.5598 40.3694 43.2921 39.3089L42.2478 37.6031C40.8441 38.4626 39.2823 38.896 37.538 38.896V40.896ZM43.2845 39.3135C45.0282 38.2673 46.4134 36.8654 47.427 35.1177L45.697 34.1143C44.8546 35.5666 43.7118 36.7247 42.2555 37.5985L43.2845 39.3135ZM47.4195 35.1305C48.4802 33.3626 49.002 31.3741 49.002 29.192H47.002C47.002 31.0419 46.5638 32.6694 45.7045 34.1015L47.4195 35.1305ZM49.002 29.192C49.002 27.0099 48.4802 25.0214 47.4195 23.2535L45.7045 24.2825C46.5638 25.7146 47.002 27.3421 47.002 29.192H49.002ZM47.4313 23.2737C46.4171 21.4902 45.0273 20.0812 43.2717 19.063L42.2683 20.793C43.7127 21.6308 44.8509 22.7818 45.6927 24.2623L47.4313 23.2737ZM43.2922 19.0751C41.5598 18.0146 39.6337 17.488 37.538 17.488V19.488C39.2823 19.488 40.8441 19.9214 42.2478 20.7809L43.2922 19.0751ZM37.538 17.488H25.394V19.488H37.538V17.488ZM24.394 18.488V39.896H26.394V18.488H24.394ZM96.2532 9.8V8.8H95.5528L95.3134 9.45831L96.2532 9.8ZM107.917 9.8L108.857 9.45831L108.618 8.8H107.917V9.8ZM132.349 77V78H133.777L133.289 76.6583L132.349 77ZM121.789 77L120.85 77.3426L121.089 78H121.789V77ZM117.133 64.232L118.073 63.8894L117.833 63.232H117.133V64.232ZM87.0372 64.232V63.232H86.335L86.0966 63.8925L87.0372 64.232ZM82.4292 77V78H83.1315L83.3699 77.3395L82.4292 77ZM71.8212 77L70.8814 76.6583L70.3936 78H71.8212V77ZM90.7332 54.248L89.7933 53.9067L89.3063 55.248H90.7332V54.248ZM113.437 54.248V55.248H114.866L114.377 53.9054L113.437 54.248ZM102.061 23.048L103.001 22.7054L102.059 20.1233L101.121 22.7067L102.061 23.048ZM96.2532 10.8H107.917V8.8H96.2532V10.8ZM106.977 10.1417L131.409 77.3417L133.289 76.6583L108.857 9.45831L106.977 10.1417ZM132.349 76H121.789V78H132.349V76ZM122.729 76.6574L118.073 63.8894L116.194 64.5746L120.85 77.3426L122.729 76.6574ZM117.133 63.232H87.0372V65.232H117.133V63.232ZM86.0966 63.8925L81.4886 76.6605L83.3699 77.3395L87.9779 64.5715L86.0966 63.8925ZM82.4292 76H71.8212V78H82.4292V76ZM72.7611 77.3417L97.1931 10.1417L95.3134 9.45831L70.8814 76.6583L72.7611 77.3417ZM90.7332 55.248H113.437V53.248H90.7332V55.248ZM114.377 53.9054L103.001 22.7054L101.122 23.3906L112.498 54.5906L114.377 53.9054ZM101.121 22.7067L89.7933 53.9067L91.6732 54.5893L103.001 23.3893L101.121 22.7067ZM157.573 77H156.573V78H157.573V77ZM157.573 9.8V8.8H156.573V9.8H157.573ZM168.373 9.8L169.219 9.26821L168.925 8.8H168.373V9.8ZM199.237 58.952L198.39 59.4838L200.237 62.425V58.952H199.237ZM199.237 9.8V8.8H198.237V9.8H199.237ZM209.221 9.8H210.221V8.8H209.221V9.8ZM209.221 77V78H210.221V77H209.221ZM198.421 77L197.574 77.5318L197.868 78H198.421V77ZM167.557 27.848L168.403 27.3162L166.557 24.375V27.848H167.557ZM167.557 77V78H168.557V77H167.557ZM158.573 77V9.8H156.573V77H158.573ZM157.573 10.8H168.373V8.8H157.573V10.8ZM167.526 10.3318L198.39 59.4838L200.083 58.4202L169.219 9.26821L167.526 10.3318ZM200.237 58.952V9.8H198.237V58.952H200.237ZM199.237 10.8H209.221V8.8H199.237V10.8ZM208.221 9.8V77H210.221V9.8H208.221ZM209.221 76H198.421V78H209.221V76ZM199.267 76.4682L168.403 27.3162L166.71 28.3798L197.574 77.5318L199.267 76.4682ZM166.557 27.848V77H168.557V27.848H166.557ZM167.557 76H157.573V78H167.557V76ZM255.848 75.56L255.433 76.4699L255.439 76.4726L255.848 75.56ZM245.288 68.072L244.559 68.7569L244.566 68.7644L245.288 68.072ZM238.184 56.936L237.256 57.3086L237.258 57.3146L238.184 56.936ZM238.184 29.864L237.258 29.4854L237.256 29.4914L238.184 29.864ZM245.288 18.776L244.563 18.0872L244.563 18.0874L245.288 18.776ZM255.848 11.288L256.257 12.2006L256.263 12.1979L255.848 11.288ZM283.688 12.344L284.172 11.4687L284.172 11.4687L283.688 12.344ZM295.064 22.424L295.536 23.3057L296.541 22.7676L295.876 21.841L295.064 22.424ZM286.184 27.176L285.4 27.7972L285.919 28.4518L286.656 28.0577L286.184 27.176ZM252.344 25.88L251.612 25.1992L251.612 25.1992L252.344 25.88ZM247.4 53.048L246.469 53.4143L246.471 53.4177L247.4 53.048ZM252.344 60.968L251.607 61.6437L251.612 61.6491L251.617 61.6543L252.344 60.968ZM259.736 66.344L259.31 67.2486L259.318 67.2526L259.736 66.344ZM278.504 65.912L278.962 66.8008L278.966 66.7989L278.504 65.912ZM286.184 59.576L286.663 58.6983L285.918 58.2915L285.396 58.9607L286.184 59.576ZM295.064 64.424L295.876 65.007L296.536 64.0882L295.543 63.5463L295.064 64.424ZM283.688 74.504L284.167 75.3819L284.172 75.3793L283.688 74.504ZM268.664 77.248C264.256 77.248 260.123 76.3797 256.257 74.6474L255.439 76.4726C259.572 78.3243 263.984 79.248 268.664 79.248V77.248ZM256.263 74.6501C252.378 72.8785 248.962 70.4563 246.01 67.3796L244.566 68.7644C247.694 72.0237 251.318 74.5935 255.433 76.4699L256.263 74.6501ZM246.017 67.3871C243.096 64.2797 240.793 60.6726 239.11 56.5574L237.258 57.3146C239.031 61.6474 241.464 65.4642 244.559 68.7569L246.017 67.3871ZM239.112 56.5634C237.466 52.4642 236.64 48.0794 236.64 43.4H234.64C234.64 48.3206 235.51 52.9598 237.256 57.3086L239.112 56.5634ZM236.64 43.4C236.64 38.7206 237.466 34.3358 239.112 30.2366L237.256 29.4914C235.51 33.8402 234.64 38.4794 234.64 43.4H236.64ZM239.11 30.2426C240.793 26.1283 243.094 22.5386 246.013 19.4646L244.563 18.0874C241.466 21.3494 239.031 25.1517 237.258 29.4854L239.11 30.2426ZM246.013 19.4647C248.964 16.3586 252.377 13.9389 256.257 12.2006L255.439 10.3754C251.319 12.2211 247.692 14.7934 244.563 18.0872L246.013 19.4647ZM256.263 12.1979C260.128 10.4353 264.258 9.55199 268.664 9.55199V7.55199C263.982 7.55199 259.568 8.49272 255.433 10.3781L256.263 12.1979ZM268.664 9.55199C273.942 9.55199 278.783 10.7765 283.204 13.2193L284.172 11.4687C279.441 8.85552 274.266 7.55199 268.664 7.55199V9.55199ZM283.204 13.2193C287.652 15.6765 291.331 18.9373 294.252 23.007L295.876 21.841C292.781 17.5267 288.876 14.0675 284.172 11.4687L283.204 13.2193ZM294.592 21.5423L285.712 26.2943L286.656 28.0577L295.536 23.3057L294.592 21.5423ZM286.968 26.5548C284.796 23.815 282.106 21.6285 278.911 19.9973L278.001 21.7787C280.95 23.2835 283.412 25.289 285.4 27.7972L286.968 26.5548ZM278.911 19.9973C275.698 18.3573 272.278 17.536 268.664 17.536V19.536C271.962 19.536 275.07 20.2827 278.001 21.7787L278.911 19.9973ZM268.664 17.536C265.323 17.536 262.184 18.2221 259.262 19.5994L260.114 21.4086C262.76 20.1619 265.605 19.536 268.664 19.536V17.536ZM259.262 19.5994C256.361 20.9662 253.81 22.8345 251.612 25.1992L253.076 26.5608C255.102 24.3815 257.447 22.6658 260.114 21.4086L259.262 19.5994ZM251.612 25.1992C249.411 27.5665 247.697 30.3144 246.469 33.4337L248.33 34.1663C249.471 31.2696 251.053 28.7375 253.076 26.5608L251.612 25.1992ZM246.469 33.4337C245.237 36.5641 244.624 39.8889 244.624 43.4H246.624C246.624 40.1271 247.195 37.0519 248.33 34.1663L246.469 33.4337ZM244.624 43.4C244.624 46.9419 245.237 50.2828 246.469 53.4143L248.33 52.6817C247.195 49.7972 246.624 46.7061 246.624 43.4H244.624ZM246.471 53.4177C247.699 56.5037 249.411 59.248 251.607 61.6437L253.081 60.2923C251.053 58.08 249.469 55.5443 248.329 52.6783L246.471 53.4177ZM251.617 61.6543C253.845 64.0159 256.411 65.8825 259.31 67.2486L260.162 65.4394C257.493 64.1815 255.131 62.4641 253.071 60.2817L251.617 61.6543ZM259.318 67.2526C262.238 68.5949 265.357 69.264 268.664 69.264V67.264C265.635 67.264 262.802 66.6531 260.154 65.4354L259.318 67.2526ZM268.664 69.264C272.339 69.264 275.776 68.444 278.962 66.8007L278.046 65.0233C275.152 66.516 272.029 67.264 268.664 67.264V69.264ZM278.966 66.7989C282.16 65.1355 284.833 62.9327 286.972 60.1913L285.396 58.9607C283.439 61.4673 280.992 63.4885 278.042 65.0251L278.966 66.7989ZM285.705 60.4537L294.585 65.3017L295.543 63.5463L286.663 58.6983L285.705 60.4537ZM294.252 63.841C291.331 67.9107 287.652 71.1715 283.204 73.6287L284.172 75.3793C288.876 72.7805 292.781 69.3213 295.876 65.007L294.252 63.841ZM283.209 73.6261C278.787 76.0384 273.944 77.248 268.664 77.248V79.248C274.264 79.248 279.437 77.9616 284.167 75.3819L283.209 73.6261ZM361.572 9.8V8.8H360.572V9.8H361.572ZM371.556 9.8H372.556V8.8H371.556V9.8ZM371.556 77V78H372.556V77H371.556ZM361.572 77H360.572V78H361.572V77ZM361.572 45.992H362.572V44.992H361.572V45.992ZM331.188 45.992V44.992H330.188V45.992H331.188ZM331.188 77V78H332.188V77H331.188ZM321.204 77H320.204V78H321.204V77ZM321.204 9.8V8.8H320.204V9.8H321.204ZM331.188 9.8H332.188V8.8H331.188V9.8ZM331.188 36.008H330.188V37.008H331.188V36.008ZM361.572 36.008V37.008H362.572V36.008H361.572ZM361.572 10.8H371.556V8.8H361.572V10.8ZM370.556 9.8V77H372.556V9.8H370.556ZM371.556 76H361.572V78H371.556V76ZM362.572 77V45.992H360.572V77H362.572ZM361.572 44.992H331.188V46.992H361.572V44.992ZM330.188 45.992V77H332.188V45.992H330.188ZM331.188 76H321.204V78H331.188V76ZM322.204 77V9.8H320.204V77H322.204ZM321.204 10.8H331.188V8.8H321.204V10.8ZM330.188 9.8V36.008H332.188V9.8H330.188ZM331.188 37.008H361.572V35.008H331.188V37.008ZM362.572 36.008V9.8H360.572V36.008H362.572ZM418.263 75.56L417.848 76.4699L417.854 76.4726L418.263 75.56ZM407.703 68.024L408.428 67.3353L408.428 67.3353L407.703 68.024ZM400.551 56.936L399.625 57.3146L399.626 57.3171L400.551 56.936ZM400.551 29.912L401.475 30.2931L401.476 30.2906L400.551 29.912ZM407.703 18.776L408.428 19.4647L408.428 19.4647L407.703 18.776ZM418.263 11.288L418.672 12.2006L418.678 12.1979L418.263 11.288ZM443.943 11.288L443.528 12.1979L443.534 12.2006L443.943 11.288ZM454.503 18.776L453.778 19.4647L453.778 19.4647L454.503 18.776ZM461.607 29.912L460.679 30.2846L460.682 30.2931L461.607 29.912ZM461.607 56.936L460.681 56.5574L460.68 56.561L461.607 56.936ZM454.503 68.024L453.778 67.3353L453.778 67.3353L454.503 68.024ZM443.943 75.56L444.352 76.4726L444.358 76.4699L443.943 75.56ZM440.055 66.296L439.628 65.3914L439.628 65.3914L440.055 66.296ZM447.399 60.92L446.667 60.2388L446.666 60.2392L447.399 60.92ZM452.391 53L451.464 52.6252L451.462 52.6303L452.391 53ZM452.391 33.8L451.46 34.1663L451.464 34.1748L452.391 33.8ZM447.399 25.88L446.662 26.5557L446.666 26.5611L446.671 26.5663L447.399 25.88ZM440.055 20.504L439.628 21.4086L439.637 21.4126L440.055 20.504ZM422.103 20.504L421.676 19.5994L421.676 19.5994L422.103 20.504ZM414.711 25.928L413.979 25.2468L413.978 25.2472L414.711 25.928ZM409.719 33.848L408.792 33.4732L408.79 33.4783L409.719 33.848ZM409.719 53.048L408.788 53.4143L408.793 53.4262L409.719 53.048ZM414.711 60.968L413.974 61.6437L413.978 61.6491L413.983 61.6543L414.711 60.968ZM422.103 66.344L421.676 67.2486L421.685 67.2526L422.103 66.344ZM431.079 77.248C426.67 77.248 422.538 76.3797 418.672 74.6474L417.854 76.4726C421.987 78.3243 426.399 79.248 431.079 79.248V77.248ZM418.678 74.6501C414.795 72.8795 411.38 70.4427 408.428 67.3353L406.978 68.7127C410.106 72.0053 413.731 74.5925 417.848 76.4699L418.678 74.6501ZM408.428 67.3353C405.475 64.2271 403.158 60.6361 401.475 56.5549L399.626 57.3171C401.4 61.6199 403.851 65.4209 406.978 68.7127L408.428 67.3353ZM401.476 56.5574C399.8 52.4597 398.959 48.077 398.959 43.4H396.959C396.959 48.323 397.846 52.9643 399.625 57.3146L401.476 56.5574ZM398.959 43.4C398.959 38.723 399.8 34.3572 401.475 30.2931L399.626 29.5309C397.846 33.8508 396.959 38.477 396.959 43.4H398.959ZM401.476 30.2906C403.159 26.1776 405.476 22.5717 408.428 19.4647L406.978 18.0872C403.849 21.3803 401.399 25.1984 399.625 29.5334L401.476 30.2906ZM408.428 19.4647C411.379 16.3586 414.791 13.9389 418.672 12.2006L417.854 10.3754C413.734 12.2211 410.107 14.7934 406.978 18.0872L408.428 19.4647ZM418.678 12.1979C422.543 10.4353 426.673 9.55199 431.079 9.55199V7.55199C426.397 7.55199 421.983 8.49272 417.848 10.3781L418.678 12.1979ZM431.079 9.55199C435.518 9.55199 439.663 10.4357 443.528 12.1979L444.358 10.3781C440.222 8.49229 435.792 7.55199 431.079 7.55199V9.55199ZM443.534 12.2006C447.414 13.9389 450.827 16.3586 453.778 19.4647L455.228 18.0872C452.099 14.7934 448.471 12.2211 444.352 10.3754L443.534 12.2006ZM453.778 19.4647C456.728 22.5703 459.028 26.1741 460.679 30.2846L462.535 29.5394C460.793 25.2019 458.358 21.3817 455.228 18.0872L453.778 19.4647ZM460.682 30.2931C462.358 34.3572 463.199 38.723 463.199 43.4H465.199C465.199 38.477 464.312 33.8508 462.531 29.5309L460.682 30.2931ZM463.199 43.4C463.199 48.077 462.358 52.4597 460.681 56.5574L462.532 57.3146C464.312 52.9643 465.199 48.323 465.199 43.4H463.199ZM460.68 56.561C459.03 60.6396 456.729 64.2285 453.778 67.3353L455.228 68.7127C458.356 65.4195 460.792 61.6164 462.534 57.311L460.68 56.561ZM453.778 67.3353C450.826 70.4427 447.411 72.8795 443.528 74.6501L444.358 76.4699C448.475 74.5925 452.1 72.0053 455.228 68.7127L453.778 67.3353ZM443.534 74.6474C439.668 76.3792 435.52 77.248 431.079 77.248V79.248C435.789 79.248 440.217 78.3248 444.352 76.4726L443.534 74.6474ZM431.079 69.264C434.42 69.264 437.558 68.5779 440.481 67.2006L439.628 65.3914C436.983 66.6381 434.137 67.264 431.079 67.264V69.264ZM440.481 67.2006C443.381 65.8338 445.933 63.9655 448.131 61.6008L446.666 60.2392C444.64 62.4185 442.296 64.1342 439.628 65.3914L440.481 67.2006ZM448.131 61.6012C450.361 59.2049 452.091 56.4588 453.32 53.3697L451.462 52.6303C450.323 55.4932 448.725 58.0271 446.667 60.2388L448.131 61.6012ZM453.318 53.3748C454.584 50.2423 455.215 46.9145 455.215 43.4H453.215C453.215 46.6695 452.629 49.7417 451.464 52.6252L453.318 53.3748ZM455.215 43.4C455.215 39.8855 454.584 36.5577 453.318 33.4252L451.464 34.1748C452.629 37.0583 453.215 40.1305 453.215 43.4H455.215ZM453.321 33.4337C452.092 30.3113 450.361 27.5617 448.126 25.1937L446.671 26.5663C448.725 28.7423 450.321 31.2727 451.46 34.1663L453.321 33.4337ZM448.136 25.2043C445.936 22.8042 443.38 20.9321 440.472 19.5954L439.637 21.4126C442.298 22.6358 444.638 24.3478 446.662 26.5557L448.136 25.2043ZM440.481 19.5994C437.558 18.2221 434.42 17.536 431.079 17.536V19.536C434.137 19.536 436.983 20.1619 439.628 21.4086L440.481 19.5994ZM431.079 17.536C427.737 17.536 424.599 18.2221 421.676 19.5994L422.529 21.4086C425.174 20.1619 428.02 19.536 431.079 19.536V17.536ZM421.676 19.5994C418.775 20.967 416.207 22.8517 413.979 25.2468L415.443 26.6092C417.502 24.3963 419.863 22.665 422.529 21.4086L421.676 19.5994ZM413.978 25.2472C411.78 27.6125 410.051 30.3574 408.792 33.4732L410.646 34.2228C411.818 31.3226 413.418 28.7875 415.443 26.6088L413.978 25.2472ZM408.79 33.4783C407.556 36.5788 406.943 39.889 406.943 43.4H408.943C408.943 40.127 409.513 37.0692 410.648 34.2177L408.79 33.4783ZM406.943 43.4C406.943 46.9419 407.556 50.2828 408.788 53.4143L410.649 52.6817C409.514 49.7972 408.943 46.7061 408.943 43.4H406.943ZM408.793 53.4262C410.052 56.5086 411.779 59.25 413.974 61.6437L415.448 60.2923C413.418 58.078 411.817 55.5394 410.644 52.6698L408.793 53.4262ZM413.983 61.6543C416.212 64.0159 418.778 65.8825 421.676 67.2486L422.529 65.4394C419.86 64.1815 417.498 62.4641 415.438 60.2817L413.983 61.6543ZM421.685 67.2526C424.606 68.5955 427.741 69.264 431.079 69.264V67.264C428.016 67.264 425.168 66.6525 422.52 65.4354L421.685 67.2526ZM504.273 76.52L504.594 75.5731L504.594 75.5731L504.273 76.52ZM495.393 71.576L494.74 72.3339L494.746 72.3387L495.393 71.576ZM489.969 63.848L489.618 62.9115L488.689 63.2594L489.03 64.1914L489.969 63.848ZM499.329 60.344L500.271 60.0102L499.932 59.0506L498.978 59.4075L499.329 60.344ZM502.449 64.472L501.828 65.256L501.837 65.2631L501.846 65.27L502.449 64.472ZM508.017 67.256L507.718 68.2102L507.722 68.2115L508.017 67.256ZM522.081 67.016L521.737 66.077L521.733 66.0786L522.081 67.016ZM527.553 63.56L526.83 62.8687L526.822 62.8771L527.553 63.56ZM527.457 53.336L526.783 54.0752L526.791 54.0825L527.457 53.336ZM521.889 50.216L521.564 51.162L521.569 51.1633L521.889 50.216ZM514.881 48.488L514.72 49.4749L514.725 49.4758L514.881 48.488ZM502.209 45.128L501.84 46.0576L501.843 46.0587L502.209 45.128ZM493.377 38.936L492.599 39.5641L492.603 39.5697L493.377 38.936ZM493.569 18.104L492.778 17.4918L492.774 17.4972L493.569 18.104ZM502.641 11.192L503.04 12.1087L503.044 12.1071L502.641 11.192ZM525.345 10.424L525.02 11.37L525.031 11.3736L525.345 10.424ZM534.273 15.368L533.625 16.13L533.635 16.1386L534.273 15.368ZM539.841 23.192L540.18 24.1328L541.124 23.7925L540.78 22.8495L539.841 23.192ZM530.385 26.6L529.44 26.9278L529.772 27.8839L530.724 27.5408L530.385 26.6ZM527.265 22.52L526.654 23.3121L526.665 23.32L527.265 22.52ZM521.697 19.736L521.398 20.6902L521.402 20.6915L521.697 19.736ZM514.881 18.728L514.868 19.728H514.881V18.728ZM507.681 19.976L508.033 20.9118L508.041 20.909L507.681 19.976ZM507.393 36.824L507.127 37.7881L507.135 37.7904L507.144 37.7925L507.393 36.824ZM514.881 38.408L514.709 39.3931L514.716 39.3944L514.723 39.3955L514.881 38.408ZM527.121 41.912L526.721 42.8287L526.724 42.8299L527.121 41.912ZM536.193 48.44L535.425 49.0811L535.433 49.0908L536.193 48.44ZM536.193 68.84L535.399 68.2319L535.398 68.2332L536.193 68.84ZM527.121 75.8L527.52 76.7167L527.524 76.7151L527.121 75.8ZM514.881 77.248C511.307 77.248 507.88 76.689 504.594 75.5731L503.951 77.4669C507.45 78.655 511.094 79.248 514.881 79.248V77.248ZM504.594 75.5731C501.312 74.4583 498.464 72.8697 496.04 70.8133L494.746 72.3387C497.377 74.5703 500.45 76.2777 503.951 77.4669L504.594 75.5731ZM496.045 70.8181C493.639 68.7474 491.934 66.3117 490.908 63.5046L489.03 64.1914C490.179 67.3363 492.09 70.0526 494.74 72.3339L496.045 70.8181ZM490.319 64.7845L499.679 61.2805L498.978 59.4075L489.618 62.9115L490.319 64.7845ZM498.386 60.6778C499.005 62.4242 500.175 63.9471 501.828 65.256L503.069 63.688C501.651 62.5649 500.741 61.3358 500.271 60.0102L498.386 60.6778ZM501.846 65.27C503.518 66.5323 505.48 67.5088 507.718 68.2102L508.316 66.3018C506.266 65.6592 504.516 64.7797 503.051 63.674L501.846 65.27ZM507.722 68.2115C509.998 68.9145 512.386 69.264 514.881 69.264V67.264C512.575 67.264 510.387 66.9415 508.312 66.3005L507.722 68.2115ZM514.881 69.264C517.551 69.264 520.07 68.8297 522.429 67.9534L521.733 66.0786C519.612 66.8663 517.33 67.264 514.881 67.264V69.264ZM522.425 67.955C524.815 67.0798 526.781 65.8502 528.283 64.2429L526.822 62.8771C525.573 64.2138 523.891 65.2882 521.737 66.077L522.425 67.955ZM528.275 64.2512C529.856 62.5986 530.665 60.6251 530.665 58.376H528.665C528.665 60.0949 528.065 61.5774 526.83 62.8688L528.275 64.2512ZM530.665 58.376C530.665 56.0554 529.816 54.0994 528.122 52.5895L526.791 54.0825C528.041 55.1966 528.665 56.6006 528.665 58.376H530.665ZM528.13 52.5968C526.567 51.1729 524.582 50.0709 522.209 49.2687L521.569 51.1633C523.739 51.8971 525.466 52.8751 526.783 54.0752L528.13 52.5968ZM522.213 49.2701C519.916 48.4825 517.524 47.8929 515.037 47.5002L514.725 49.4758C517.102 49.8511 519.381 50.4135 521.564 51.1619L522.213 49.2701ZM515.042 47.5011C510.395 46.7425 506.242 45.6391 502.575 44.1973L501.843 46.0587C505.664 47.5609 509.958 48.6975 514.72 49.4749L515.042 47.5011ZM502.577 44.1984C498.997 42.7788 496.202 40.8068 494.15 38.3023L492.603 39.5697C494.903 42.3772 497.996 44.5332 501.84 46.0576L502.577 44.1984ZM494.155 38.3079C492.187 35.8701 491.161 32.6533 491.161 28.568H489.161C489.161 32.9947 490.278 36.6899 492.599 39.5641L494.155 38.3079ZM491.161 28.568C491.161 24.7713 492.234 21.5002 494.364 18.7108L492.774 17.4972C490.359 20.6598 489.161 24.3647 489.161 28.568H491.161ZM494.359 18.7162C496.552 15.884 499.437 13.6795 503.04 12.1087L502.241 10.2753C498.357 11.9685 495.193 14.372 492.778 17.4918L494.359 18.7162ZM503.044 12.1071C506.685 10.5025 510.627 9.696 514.881 9.696V7.696C510.367 7.696 506.148 8.55347 502.237 10.2769L503.044 12.1071ZM514.881 9.696C518.388 9.696 521.767 10.2544 525.02 11.3699L525.669 9.47805C522.203 8.28961 518.605 7.696 514.881 7.696V9.696ZM525.031 11.3736C528.309 12.4557 531.169 14.0426 533.625 16.1299L534.92 14.6061C532.256 12.3414 529.165 10.6323 525.658 9.47442L525.031 11.3736ZM533.635 16.1386C536.095 18.1727 537.844 20.6345 538.901 23.5345L540.78 22.8495C539.598 19.6055 537.635 16.8513 534.91 14.5974L533.635 16.1386ZM539.502 22.2512L530.046 25.6592L530.724 27.5408L540.18 24.1328L539.502 22.2512ZM531.329 26.2722C530.71 24.4878 529.534 22.9723 527.865 21.72L526.665 23.32C528.067 24.3717 528.971 25.5762 529.44 26.9278L531.329 26.2722ZM527.875 21.728C526.23 20.4596 524.262 19.4817 521.992 18.7805L521.402 20.6915C523.483 21.3343 525.228 22.2124 526.654 23.312L527.875 21.728ZM521.996 18.7818C519.749 18.0774 517.375 17.728 514.881 17.728V19.728C517.186 19.728 519.357 20.0506 521.398 20.6902L521.996 18.7818ZM514.893 17.7281C512.215 17.6946 509.687 18.1302 507.321 19.043L508.041 20.909C510.154 20.0938 512.427 19.6974 514.868 19.7279L514.893 17.7281ZM507.328 19.0402C505.002 19.9167 503.061 21.1447 501.534 22.7408L502.979 24.1232C504.269 22.7753 505.943 21.6993 508.033 20.9118L507.328 19.0402ZM501.534 22.7408C499.957 24.3899 499.145 26.3463 499.145 28.568H501.145C501.145 26.8857 501.741 25.4181 502.979 24.1232L501.534 22.7408ZM499.145 28.568C499.145 31.1489 499.854 33.2721 501.424 34.7646L502.802 33.3154C501.747 32.3119 501.145 30.7871 501.145 28.568H499.145ZM501.424 34.7646C502.882 36.1522 504.802 37.1477 507.127 37.7881L507.658 35.8599C505.568 35.2843 503.967 34.4237 502.802 33.3154L501.424 34.7646ZM507.144 37.7925C509.414 38.3762 511.936 38.9095 514.709 39.3931L515.053 37.4229C512.321 36.9465 509.852 36.4238 507.642 35.8555L507.144 37.7925ZM514.723 39.3955C519.064 40.0875 523.061 41.2335 526.721 42.8287L527.52 40.9953C523.692 39.3265 519.53 38.1365 515.038 37.4205L514.723 39.3955ZM526.724 42.8299C530.38 44.4099 533.268 46.499 535.425 49.0811L536.96 47.7989C534.573 44.941 531.414 42.6781 527.517 40.9941L526.724 42.8299ZM535.433 49.0908C537.564 51.577 538.649 54.6501 538.649 58.376H540.649C540.649 54.2299 539.429 50.679 536.952 47.7892L535.433 49.0908ZM538.649 58.376C538.649 62.1353 537.563 65.4071 535.399 68.2319L536.987 69.4481C539.431 66.2569 540.649 62.5527 540.649 58.376H538.649ZM535.398 68.2332C533.238 71.0617 530.355 73.2819 526.717 74.8849L527.524 76.7151C531.438 74.9901 534.603 72.5703 536.988 69.4468L535.398 68.2332ZM526.721 74.8833C523.113 76.456 519.171 77.248 514.881 77.248V79.248C519.423 79.248 523.64 78.408 527.52 76.7167L526.721 74.8833ZM584.707 75.56L584.292 76.4699L584.298 76.4726L584.707 75.56ZM574.147 68.024L574.872 67.3353L574.872 67.3353L574.147 68.024ZM566.995 56.936L566.069 57.3146L566.07 57.3171L566.995 56.936ZM566.995 29.912L567.919 30.2931L567.92 30.2906L566.995 29.912ZM574.147 18.776L574.872 19.4647L574.872 19.4647L574.147 18.776ZM584.707 11.288L585.115 12.2006L585.121 12.1979L584.707 11.288ZM610.387 11.288L609.972 12.1979L609.978 12.2006L610.387 11.288ZM620.947 18.776L620.222 19.4647L620.222 19.4647L620.947 18.776ZM628.051 29.912L627.122 30.2846L627.126 30.2931L628.051 29.912ZM628.051 56.936L627.125 56.5574L627.123 56.561L628.051 56.936ZM620.947 68.024L620.222 67.3353L620.222 67.3353L620.947 68.024ZM610.387 75.56L610.795 76.4726L610.801 76.4699L610.387 75.56ZM606.499 66.296L606.072 65.3914L606.072 65.3914L606.499 66.296ZM613.843 60.92L613.11 60.2388L613.11 60.2392L613.843 60.92ZM618.835 53L617.907 52.6252L617.905 52.6303L618.835 53ZM618.835 33.8L617.904 34.1663L617.907 34.1748L618.835 33.8ZM613.843 25.88L613.105 26.5557L613.11 26.5611L613.115 26.5663L613.843 25.88ZM606.499 20.504L606.072 21.4086L606.081 21.4126L606.499 20.504ZM588.547 20.504L588.12 19.5994L588.12 19.5994L588.547 20.504ZM581.155 25.928L580.422 25.2468L580.422 25.2472L581.155 25.928ZM576.163 33.848L575.235 33.4732L575.233 33.4783L576.163 33.848ZM576.163 53.048L575.232 53.4143L575.237 53.4262L576.163 53.048ZM581.155 60.968L580.417 61.6437L580.422 61.6491L580.427 61.6543L581.155 60.968ZM588.547 66.344L588.12 67.2486L588.129 67.2526L588.547 66.344ZM597.523 77.248C593.114 77.248 588.982 76.3797 585.115 74.6474L584.298 76.4726C588.431 78.3243 592.843 79.248 597.523 79.248V77.248ZM585.121 74.6501C581.238 72.8795 577.824 70.4427 574.872 67.3353L573.422 68.7127C576.549 72.0053 580.175 74.5925 584.292 76.4699L585.121 74.6501ZM574.872 67.3353C571.919 64.2271 569.601 60.6361 567.919 56.5549L566.07 57.3171C567.844 61.6199 570.294 65.4209 573.422 68.7127L574.872 67.3353ZM567.92 56.5574C566.244 52.4597 565.403 48.077 565.403 43.4H563.403C563.403 48.323 564.289 52.9643 566.069 57.3146L567.92 56.5574ZM565.403 43.4C565.403 38.723 566.244 34.3572 567.919 30.2931L566.07 29.5309C564.289 33.8508 563.403 38.477 563.403 43.4H565.403ZM567.92 30.2906C569.603 26.1776 571.92 22.5717 574.872 19.4647L573.422 18.0872C570.293 21.3803 567.842 25.1984 566.069 29.5334L567.92 30.2906ZM574.872 19.4647C577.822 16.3586 581.235 13.9389 585.115 12.2006L584.298 10.3754C580.178 12.2211 576.551 14.7934 573.422 18.0872L574.872 19.4647ZM585.121 12.1979C588.987 10.4353 593.117 9.55199 597.523 9.55199V7.55199C592.84 7.55199 588.426 8.49272 584.292 10.3781L585.121 12.1979ZM597.523 9.55199C601.961 9.55199 606.107 10.4357 609.972 12.1979L610.801 10.3781C606.666 8.49229 602.236 7.55199 597.523 7.55199V9.55199ZM609.978 12.2006C613.858 13.9389 617.271 16.3586 620.222 19.4647L621.672 18.0872C618.542 14.7934 614.915 12.2211 610.795 10.3754L609.978 12.2006ZM620.222 19.4647C623.172 22.5703 625.472 26.1741 627.123 30.2846L628.978 29.5394C627.237 25.2019 624.801 21.3817 621.672 18.0872L620.222 19.4647ZM627.126 30.2931C628.801 34.3572 629.643 38.723 629.643 43.4H631.643C631.643 38.477 630.756 33.8508 628.975 29.5309L627.126 30.2931ZM629.643 43.4C629.643 48.077 628.801 52.4597 627.125 56.5574L628.976 57.3146C630.756 52.9643 631.643 48.323 631.643 43.4H629.643ZM627.123 56.561C625.473 60.6396 623.173 64.2285 620.222 67.3353L621.672 68.7127C624.8 65.4195 627.236 61.6164 628.978 57.311L627.123 56.561ZM620.222 67.3353C617.269 70.4427 613.855 72.8795 609.972 74.6501L610.801 76.4699C614.918 74.5925 618.544 72.0053 621.672 68.7127L620.222 67.3353ZM609.978 74.6474C606.112 76.3792 601.964 77.248 597.523 77.248V79.248C602.233 79.248 606.661 78.3248 610.795 76.4726L609.978 74.6474ZM597.523 69.264C600.864 69.264 604.002 68.5779 606.925 67.2006L606.072 65.3914C603.427 66.6381 600.581 67.264 597.523 67.264V69.264ZM606.925 67.2006C609.825 65.8338 612.377 63.9655 614.575 61.6008L613.11 60.2392C611.084 62.4185 608.74 64.1342 606.072 65.3914L606.925 67.2006ZM614.575 61.6012C616.805 59.2049 618.535 56.4588 619.764 53.3697L617.905 52.6303C616.766 55.4932 615.168 58.0271 613.11 60.2388L614.575 61.6012ZM619.762 53.3748C621.028 50.2423 621.659 46.9145 621.659 43.4H619.659C619.659 46.6695 619.073 49.7417 617.907 52.6252L619.762 53.3748ZM621.659 43.4C621.659 39.8855 621.028 36.5577 619.762 33.4252L617.907 34.1748C619.073 37.0583 619.659 40.1305 619.659 43.4H621.659ZM619.765 33.4337C618.536 30.3113 616.804 27.5617 614.57 25.1937L613.115 26.5663C615.169 28.7423 616.765 31.2727 617.904 34.1663L619.765 33.4337ZM614.58 25.2043C612.38 22.8042 609.824 20.9321 606.916 19.5954L606.081 21.4126C608.741 22.6358 611.081 24.3478 613.105 26.5557L614.58 25.2043ZM606.925 19.5994C604.002 18.2221 600.864 17.536 597.523 17.536V19.536C600.581 19.536 603.427 20.1619 606.072 21.4086L606.925 19.5994ZM597.523 17.536C594.181 17.536 591.043 18.2221 588.12 19.5994L588.973 21.4086C591.618 20.1619 594.464 19.536 597.523 19.536V17.536ZM588.12 19.5994C585.218 20.967 582.651 22.8517 580.422 25.2468L581.887 26.6092C583.946 24.3963 586.307 22.665 588.973 21.4086L588.12 19.5994ZM580.422 25.2472C578.223 27.6125 576.495 30.3574 575.235 33.4732L577.09 34.2228C578.262 31.3226 579.862 28.7875 581.887 26.6088L580.422 25.2472ZM575.233 33.4783C574 36.5788 573.387 39.889 573.387 43.4H575.387C575.387 40.127 575.957 37.0692 577.092 34.2177L575.233 33.4783ZM573.387 43.4C573.387 46.9419 573.999 50.2828 575.232 53.4143L577.093 52.6817C575.958 49.7972 575.387 46.7061 575.387 43.4H573.387ZM575.237 53.4262C576.496 56.5086 578.223 59.25 580.417 61.6437L581.892 60.2923C579.862 58.078 578.261 55.5394 577.088 52.6698L575.237 53.4262ZM580.427 61.6543C582.656 64.0159 585.221 65.8825 588.12 67.2486L588.973 65.4394C586.304 64.1815 583.941 62.4641 581.882 60.2817L580.427 61.6543ZM588.129 67.2526C591.05 68.5955 594.185 69.264 597.523 69.264V67.264C594.46 67.264 591.611 66.6525 588.964 65.4354L588.129 67.2526ZM656.529 77H655.529V78H656.529V77ZM656.529 9.8V8.8H655.529V9.8H656.529ZM696.129 9.8H697.129V8.8H696.129V9.8ZM696.129 19.784V20.784H697.129V19.784H696.129ZM666.513 19.784V18.784H665.513V19.784H666.513ZM666.513 36.008H665.513V37.008H666.513V36.008ZM691.521 36.008H692.521V35.008H691.521V36.008ZM691.521 45.992V46.992H692.521V45.992H691.521ZM666.513 45.992V44.992H665.513V45.992H666.513ZM666.513 77V78H667.513V77H666.513ZM657.529 77V9.8H655.529V77H657.529ZM656.529 10.8H696.129V8.8H656.529V10.8ZM695.129 9.8V19.784H697.129V9.8H695.129ZM696.129 18.784H666.513V20.784H696.129V18.784ZM665.513 19.784V36.008H667.513V19.784H665.513ZM666.513 37.008H691.521V35.008H666.513V37.008ZM690.521 36.008V45.992H692.521V36.008H690.521ZM691.521 44.992H666.513V46.992H691.521V44.992ZM665.513 45.992V77H667.513V45.992H665.513ZM666.513 76H656.529V78H666.513V76ZM770.473 9.8H771.473V8.8H770.473V9.8ZM770.473 19.784V20.784H771.473V19.784H770.473ZM749.065 19.784V18.784H748.065V19.784H749.065ZM749.065 77V78H750.065V77H749.065ZM739.081 77H738.081V78H739.081V77ZM739.081 19.784H740.081V18.784H739.081V19.784ZM717.721 19.784H716.721V20.784H717.721V19.784ZM717.721 9.8V8.8H716.721V9.8H717.721ZM769.473 9.8V19.784H771.473V9.8H769.473ZM770.473 18.784H749.065V20.784H770.473V18.784ZM748.065 19.784V77H750.065V19.784H748.065ZM749.065 76H739.081V78H749.065V76ZM740.081 77V19.784H738.081V77H740.081ZM739.081 18.784H717.721V20.784H739.081V18.784ZM718.721 19.784V9.8H716.721V19.784H718.721ZM717.721 10.8H770.473V8.8H717.721V10.8Z"></path>
</svg>